<svg width="28" height="28" viewBox="0 0 28 28" fill="none" xmlns="http://www.w3.org/2000/svg">
<path d="M10.8673 21.8823H22C24.2091 21.8823 26 20.0915 26 17.8823V9.99997C26 7.79083 24.2091 5.99997 22 5.99997L10.8673 5.99997C9.83337 5.99997 8.83957 6.40035 8.09438 7.11714L2.49852 12.4997C1.6805 13.2866 1.6805 14.5957 2.49852 15.3826L8.09438 20.7652C8.83957 21.4819 9.83337 21.8823 10.8673 21.8823Z" fill="#E3E4EB"/>
<path fill-rule="evenodd" clip-rule="evenodd" d="M17.8298 14.3381L21.0356 11.133C21.0989 11.0698 21.1491 10.9948 21.1833 10.9122C21.2176 10.8296 21.2352 10.7411 21.2352 10.6517C21.2352 10.5623 21.2177 10.4738 21.1835 10.3911C21.1493 10.3085 21.0991 10.2335 21.0359 10.1702C20.9727 10.107 20.8977 10.0568 20.8151 10.0226C20.7324 9.98836 20.6439 9.97073 20.5545 9.9707C20.4651 9.97068 20.3765 9.98826 20.2939 10.0224C20.2113 10.0566 20.1362 10.1068 20.0729 10.17L16.8671 13.3756L13.6608 10.17C13.5316 10.0494 13.3607 9.98365 13.184 9.98669C13.0073 9.98973 12.8387 10.0613 12.7138 10.1862C12.5889 10.3112 12.5174 10.4798 12.5145 10.6564C12.5115 10.8331 12.5774 11.004 12.6981 11.133L15.9044 14.3381L12.6981 17.5431C12.6033 17.6385 12.5389 17.7598 12.5129 17.8917C12.4869 18.0236 12.5005 18.1603 12.5519 18.2845C12.6034 18.4087 12.6905 18.5149 12.8022 18.5898C12.9139 18.6647 13.0452 18.7048 13.1797 18.7053C13.3539 18.7053 13.528 18.6389 13.6608 18.5062L16.8671 15.3006L20.0729 18.5062C20.1361 18.5695 20.2111 18.6198 20.2937 18.6541C20.3763 18.6883 20.4648 18.706 20.5543 18.706C20.6437 18.706 20.7323 18.6883 20.8149 18.6541C20.8975 18.6198 20.9725 18.5695 21.0356 18.5062C21.0989 18.443 21.1491 18.3679 21.1834 18.2853C21.2177 18.2027 21.2353 18.1141 21.2353 18.0247C21.2353 17.9352 21.2177 17.8467 21.1834 17.764C21.1491 17.6814 21.0989 17.6064 21.0356 17.5431L17.8298 14.3381Z" fill="#36373B"/>
</svg>
