<svg width="28" height="28" viewBox="0 0 28 28" fill="none" xmlns="http://www.w3.org/2000/svg">
<path d="M23.75 14V19.85C23.75 21.995 21.995 23.75 19.85 23.75H8.14997C6.00497 23.75 4.25 21.995 4.25 19.85V8.15001C4.25 6.00501 6.00497 4.25 8.14997 4.25H14" stroke="#007BFC" stroke-width="2" stroke-linecap="round" stroke-linejoin="round"/>
<path d="M21.0416 10.934L16.6 15.3756C16.405 15.5706 16.1775 15.679 15.9066 15.7006L13.2525 15.9498C12.5591 16.0148 11.9741 15.419 12.0391 14.7256L12.2774 12.1473C12.2991 11.8765 12.4075 11.6381 12.6025 11.4539L17.0874 6.96896L21.0416 10.934V10.934Z" stroke="#007BFC" stroke-width="2" stroke-linejoin="round"/>
<path d="M23.425 8.56149L21.0416 10.934L17.0874 6.96899L19.4599 4.59648C19.8933 4.16315 20.6083 4.16315 21.0416 4.59648L23.425 6.96899C23.8475 7.40232 23.8475 8.12816 23.425 8.56149V8.56149Z" stroke="#007BFC" stroke-width="2" stroke-linejoin="round"/>
</svg>
