<svg width="375" height="48" viewBox="0 0 375 48" fill="none" xmlns="http://www.w3.org/2000/svg">
<path fill-rule="evenodd" clip-rule="evenodd" d="M298.804 23.5H297.637C296.993 23.5 296.471 24.0037 296.471 24.625V34.375C296.471 34.9963 296.993 35.5 297.637 35.5H298.804C299.448 35.5 299.971 34.9963 299.971 34.375V24.625C299.971 24.0037 299.448 23.5 298.804 23.5ZM292.147 26.1251H293.314C293.958 26.1251 294.48 26.6288 294.48 27.2501V34.3751C294.48 34.9965 293.958 35.5001 293.314 35.5001H292.147C291.503 35.5001 290.98 34.9965 290.98 34.3751V27.2501C290.98 26.6288 291.503 26.1251 292.147 26.1251ZM287.824 28.7499H286.657C286.013 28.7499 285.49 29.2536 285.49 29.8749V34.3749C285.49 34.9962 286.013 35.4999 286.657 35.4999H287.824C288.468 35.4999 288.99 34.9962 288.99 34.3749V29.8749C288.99 29.2536 288.468 28.7499 287.824 28.7499ZM282.333 30.9999H281.167C280.522 30.9999 280 31.5036 280 32.1249V34.3749C280 34.9962 280.522 35.4999 281.167 35.4999H282.333C282.978 35.4999 283.5 34.9962 283.5 34.3749V32.1249C283.5 31.5036 282.978 30.9999 282.333 30.9999Z" fill="#1F1F1F"/>
<path fill-rule="evenodd" clip-rule="evenodd" d="M314.471 25.846C316.938 25.8461 319.31 26.8167 321.098 28.5571C321.232 28.6915 321.447 28.6898 321.58 28.5533L322.867 27.2234C322.934 27.1542 322.971 27.0604 322.971 26.9629C322.97 26.8653 322.932 26.772 322.864 26.7036C318.172 22.0988 310.77 22.0988 306.078 26.7036C306.01 26.772 305.971 26.8652 305.971 26.9628C305.97 27.0603 306.007 27.1541 306.075 27.2234L307.362 28.5533C307.494 28.69 307.709 28.6917 307.844 28.5571C309.632 26.8166 312.004 25.846 314.471 25.846ZM314.471 30.1727C315.826 30.1726 317.133 30.6884 318.138 31.62C318.274 31.7522 318.488 31.7493 318.62 31.6135L319.905 30.2836C319.973 30.2139 320.011 30.1192 320.01 30.0209C320.009 29.9226 319.969 29.8287 319.9 29.7604C316.841 26.8463 312.104 26.8463 309.045 29.7604C308.976 29.8287 308.936 29.9226 308.935 30.021C308.934 30.1193 308.972 30.214 309.04 30.2836L310.325 31.6135C310.457 31.7493 310.671 31.7522 310.807 31.62C311.811 30.689 313.117 30.1732 314.471 30.1727ZM317.046 33.084C317.048 33.1826 317.01 33.2777 316.941 33.3468L314.718 35.6445C314.653 35.712 314.564 35.75 314.471 35.75C314.378 35.75 314.29 35.712 314.224 35.6445L312.001 33.3468C311.932 33.2776 311.894 33.1825 311.896 33.0839C311.898 32.9853 311.94 32.8919 312.012 32.8258C313.431 31.596 315.511 31.596 316.931 32.8258C317.002 32.892 317.044 32.9854 317.046 33.084Z" fill="#1F1F1F"/>
<g clip-path="url(#clip0_1_455)">
<rect opacity="0.4" x="329.471" y="23.5" width="24" height="12" rx="3.5" stroke="#1F1F1F"/>
<path opacity="0.5" d="M354.971 27.5V31.5C355.777 31.1612 356.301 30.3731 356.301 29.5C356.301 28.6269 355.777 27.8388 354.971 27.5Z" fill="#1F1F1F"/>
<rect x="330.971" y="25" width="21" height="9" rx="2" fill="#1F1F1F"/>
</g>
<path d="M37.2549 36.2988C40.1021 36.2988 41.8286 33.8833 41.8286 30.0151V29.9985C41.8286 26.1304 40.1021 23.7231 37.2549 23.7231C34.4077 23.7231 32.6978 26.1304 32.6978 29.9985V30.0151C32.6978 33.8833 34.4077 36.2988 37.2549 36.2988ZM37.2549 34.564C35.7275 34.564 34.856 32.854 34.856 30.0151V29.9985C34.856 27.1597 35.7275 25.4663 37.2549 25.4663C38.7822 25.4663 39.6704 27.1597 39.6704 29.9985V30.0151C39.6704 32.854 38.7822 34.564 37.2549 34.564ZM47.9194 23.7231C45.3213 23.7231 43.4702 25.4995 43.4702 27.9316V27.9482C43.4702 30.2227 45.0806 31.8994 47.3799 31.8994C49.0234 31.8994 50.0693 31.061 50.5093 30.1147H50.6753C50.6753 30.2061 50.667 30.2974 50.667 30.3887C50.5757 32.6797 49.7705 34.5391 47.8696 34.5391C46.8154 34.5391 46.0767 33.9912 45.7612 33.1528L45.7363 33.0698H43.6279L43.6445 33.1611C44.0264 34.9956 45.6699 36.2988 47.8696 36.2988C50.8828 36.2988 52.7007 33.9082 52.7007 29.874V29.8574C52.7007 25.541 50.4761 23.7231 47.9194 23.7231ZM47.9111 30.2559C46.5498 30.2559 45.562 29.2598 45.562 27.8735V27.8569C45.562 26.5205 46.6162 25.4663 47.936 25.4663C49.2642 25.4663 50.3018 26.5371 50.3018 27.9067V27.9233C50.3018 29.2764 49.2642 30.2559 47.9111 30.2559ZM55.9692 28.2388C56.7329 28.2388 57.2891 27.6577 57.2891 26.9272C57.2891 26.1885 56.7329 25.6157 55.9692 25.6157C55.2139 25.6157 54.6494 26.1885 54.6494 26.9272C54.6494 27.6577 55.2139 28.2388 55.9692 28.2388ZM55.9692 34.3979C56.7329 34.3979 57.2891 33.8252 57.2891 33.0864C57.2891 32.3477 56.7329 31.7749 55.9692 31.7749C55.2139 31.7749 54.6494 32.3477 54.6494 33.0864C54.6494 33.8252 55.2139 34.3979 55.9692 34.3979ZM65.0483 36H67.0986V33.7007H68.709V31.9326H67.0986V24.022H64.0688C62.4419 26.4956 60.7402 29.2515 59.188 31.9492V33.7007H65.0483V36ZM61.1802 31.9824V31.8579C62.3423 29.8242 63.7285 27.6079 64.957 25.7319H65.0815V31.9824H61.1802ZM73.1729 36H75.3145V24.022H73.1812L70.0518 26.2217V28.2388L73.0317 26.1304H73.1729V36Z" fill="#1F1F1F"/>
<defs>
<clipPath id="clip0_1_455">
<rect width="27.33" height="13" fill="white" transform="translate(328.971 23)"/>
</clipPath>
</defs>
</svg>
